<?xml version="1.0" encoding="UTF-8" standalone="no"?>
<!DOCTYPE svg PUBLIC "-//W3C//DTD SVG 1.1//EN"
 "http://www.w3.org/Graphics/SVG/1.1/DTD/svg11.dtd">
<!-- Generated by graphviz version 12.2.1 (0)
 -->
<!-- Title: pipeline_dag Pages: 1 -->
<svg width="667pt" height="753pt"
 viewBox="0.00 0.00 666.83 753.40" xmlns="http://www.w3.org/2000/svg" xmlns:xlink="http://www.w3.org/1999/xlink">
<g id="graph0" class="graph" transform="scale(1 1) rotate(0) translate(4 749.4)">
<title>pipeline_dag</title>
<polygon fill="white" stroke="none" points="-4,4 -4,-749.4 662.83,-749.4 662.83,4 -4,4"/>
<!-- v0 -->
<g id="node1" class="node">
<title>v0</title>
<ellipse fill="black" stroke="black" cx="160.58" cy="-725.3" rx="3.6" ry="3.6"/>
<text text-anchor="middle" x="115.35" y="-732.1" font-family="Times,serif" font-size="14.00">Channel.empty</text>
</g>
<!-- v1 -->
<g id="node2" class="node">
<title>v1</title>
<ellipse fill="black" stroke="black" cx="160.58" cy="-651.2" rx="1.8" ry="1.8"/>
</g>
<!-- v0&#45;&gt;v1 -->
<g id="edge1" class="edge">
<title>v0&#45;&gt;v1</title>
<path fill="none" stroke="black" d="M160.58,-721.2C160.58,-711.56 160.58,-681.71 160.58,-664.6"/>
<polygon fill="black" stroke="black" points="164.08,-664.68 160.58,-654.68 157.08,-664.68 164.08,-664.68"/>
<text text-anchor="middle" x="180.45" y="-690.4" font-family="Times,serif" font-size="14.00">urls_ch</text>
</g>
<!-- v2 -->
<g id="node3" class="node">
<title>v2</title>
<ellipse fill="black" stroke="black" cx="265.58" cy="-725.3" rx="3.6" ry="3.6"/>
</g>
<!-- v3 -->
<g id="node4" class="node">
<title>v3</title>
<ellipse fill="none" stroke="black" cx="265.58" cy="-651.2" rx="85.13" ry="18"/>
<text text-anchor="middle" x="265.58" y="-646.15" font-family="Times,serif" font-size="14.00">BBRF_GET_URLS</text>
</g>
<!-- v2&#45;&gt;v3 -->
<g id="edge2" class="edge">
<title>v2&#45;&gt;v3</title>
<path fill="none" stroke="black" d="M265.58,-721.2C265.58,-714.2 265.58,-696.54 265.58,-680.84"/>
<polygon fill="black" stroke="black" points="269.08,-680.94 265.58,-670.94 262.08,-680.94 269.08,-680.94"/>
<text text-anchor="middle" x="288.83" y="-690.4" font-family="Times,serif" font-size="14.00">program</text>
</g>
<!-- v6 -->
<g id="node5" class="node">
<title>v6</title>
<ellipse fill="none" stroke="black" cx="265.58" cy="-592.6" rx="3.6" ry="3.6"/>
<text text-anchor="middle" x="238.35" y="-599.4" font-family="Times,serif" font-size="14.00">splitText</text>
</g>
<!-- v3&#45;&gt;v6 -->
<g id="edge3" class="edge">
<title>v3&#45;&gt;v6</title>
<path fill="none" stroke="black" d="M265.58,-632.91C265.58,-624.88 265.58,-615.46 265.58,-607.85"/>
<polygon fill="black" stroke="black" points="269.08,-608.07 265.58,-598.07 262.08,-608.07 269.08,-608.07"/>
</g>
<!-- v7 -->
<g id="node10" class="node">
<title>v7</title>
<ellipse fill="none" stroke="black" cx="265.58" cy="-548.4" rx="3.6" ry="3.6"/>
<text text-anchor="middle" x="249.98" y="-555.2" font-family="Times,serif" font-size="14.00">map</text>
</g>
<!-- v6&#45;&gt;v7 -->
<g id="edge7" class="edge">
<title>v6&#45;&gt;v7</title>
<path fill="none" stroke="black" d="M265.58,-588.57C265.58,-583.41 265.58,-572.61 265.58,-563.66"/>
<polygon fill="black" stroke="black" points="269.08,-563.7 265.58,-553.7 262.08,-563.7 269.08,-563.7"/>
</g>
<!-- v4 -->
<g id="node6" class="node">
<title>v4</title>
<ellipse fill="black" stroke="black" cx="481.58" cy="-725.3" rx="3.6" ry="3.6"/>
</g>
<!-- v5 -->
<g id="node7" class="node">
<title>v5</title>
<ellipse fill="none" stroke="black" cx="481.58" cy="-651.2" rx="112.77" ry="18"/>
<text text-anchor="middle" x="481.58" y="-646.15" font-family="Times,serif" font-size="14.00">BBRF_GET_URLS_FULL</text>
</g>
<!-- v4&#45;&gt;v5 -->
<g id="edge4" class="edge">
<title>v4&#45;&gt;v5</title>
<path fill="none" stroke="black" d="M481.58,-721.2C481.58,-714.2 481.58,-696.54 481.58,-680.84"/>
<polygon fill="black" stroke="black" points="485.08,-680.94 481.58,-670.94 478.08,-680.94 485.08,-680.94"/>
<text text-anchor="middle" x="504.83" y="-690.4" font-family="Times,serif" font-size="14.00">program</text>
</g>
<!-- v9 -->
<g id="node8" class="node">
<title>v9</title>
<ellipse fill="none" stroke="black" cx="468.58" cy="-592.6" rx="3.6" ry="3.6"/>
<text text-anchor="middle" x="451.85" y="-599.4" font-family="Times,serif" font-size="14.00">view</text>
</g>
<!-- v5&#45;&gt;v9 -->
<g id="edge5" class="edge">
<title>v5&#45;&gt;v9</title>
<path fill="none" stroke="black" d="M477.61,-632.91C475.74,-624.78 473.55,-615.22 471.79,-607.56"/>
<polygon fill="black" stroke="black" points="475.25,-606.99 469.6,-598.03 468.42,-608.56 475.25,-606.99"/>
</g>
<!-- v11 -->
<g id="node9" class="node">
<title>v11</title>
<ellipse fill="none" stroke="black" cx="493.58" cy="-592.6" rx="3.6" ry="3.6"/>
<text text-anchor="middle" x="476.85" y="-575.7" font-family="Times,serif" font-size="14.00">view</text>
</g>
<!-- v5&#45;&gt;v11 -->
<g id="edge6" class="edge">
<title>v5&#45;&gt;v11</title>
<path fill="none" stroke="black" d="M485.25,-632.91C486.97,-624.78 489,-615.22 490.62,-607.56"/>
<polygon fill="black" stroke="black" points="493.99,-608.54 492.64,-598.03 487.14,-607.09 493.99,-608.54"/>
</g>
<!-- v10 -->
<g id="node13" class="node">
<title>v10</title>
<ellipse fill="black" stroke="black" cx="468.58" cy="-548.4" rx="1.8" ry="1.8"/>
</g>
<!-- v9&#45;&gt;v10 -->
<g id="edge10" class="edge">
<title>v9&#45;&gt;v10</title>
<path fill="none" stroke="black" d="M468.58,-588.57C468.58,-583.08 468.58,-571.21 468.58,-561.97"/>
<polygon fill="black" stroke="black" points="472.08,-562.2 468.58,-552.2 465.08,-562.2 472.08,-562.2"/>
</g>
<!-- v12 -->
<g id="node14" class="node">
<title>v12</title>
<ellipse fill="black" stroke="black" cx="493.58" cy="-548.4" rx="1.8" ry="1.8"/>
</g>
<!-- v11&#45;&gt;v12 -->
<g id="edge11" class="edge">
<title>v11&#45;&gt;v12</title>
<path fill="none" stroke="black" d="M493.58,-588.57C493.58,-583.08 493.58,-571.21 493.58,-561.97"/>
<polygon fill="black" stroke="black" points="497.08,-562.2 493.58,-552.2 490.08,-562.2 497.08,-562.2"/>
</g>
<!-- v8 -->
<g id="node11" class="node">
<title>v8</title>
<ellipse fill="none" stroke="black" cx="265.58" cy="-504.2" rx="3.6" ry="3.6"/>
<text text-anchor="middle" x="248.85" y="-511" font-family="Times,serif" font-size="14.00">filter</text>
</g>
<!-- v7&#45;&gt;v8 -->
<g id="edge8" class="edge">
<title>v7&#45;&gt;v8</title>
<path fill="none" stroke="black" d="M265.58,-544.37C265.58,-539.21 265.58,-528.41 265.58,-519.46"/>
<polygon fill="black" stroke="black" points="269.08,-519.5 265.58,-509.5 262.08,-519.5 269.08,-519.5"/>
</g>
<!-- v17 -->
<g id="node12" class="node">
<title>v17</title>
<ellipse fill="none" stroke="black" cx="376.58" cy="-430.1" rx="117.89" ry="18"/>
<text text-anchor="middle" x="376.58" y="-425.05" font-family="Times,serif" font-size="14.00">DIRBUSTING:GOBUSTER</text>
</g>
<!-- v8&#45;&gt;v17 -->
<g id="edge9" class="edge">
<title>v8&#45;&gt;v17</title>
<path fill="none" stroke="black" d="M268.32,-501.42C278.3,-494.94 313.49,-472.08 341.08,-454.16"/>
<polygon fill="black" stroke="black" points="342.72,-457.27 349.2,-448.89 338.91,-451.4 342.72,-457.27"/>
<text text-anchor="middle" x="340.95" y="-469.3" font-family="Times,serif" font-size="14.00">urls_ch</text>
</g>
<!-- v23 -->
<g id="node24" class="node">
<title>v23</title>
<ellipse fill="none" stroke="black" cx="149.58" cy="-430.1" rx="91.27" ry="18"/>
<text text-anchor="middle" x="149.58" y="-425.05" font-family="Times,serif" font-size="14.00">DIRBUSTING:FFUF</text>
</g>
<!-- v8&#45;&gt;v23 -->
<g id="edge20" class="edge">
<title>v8&#45;&gt;v23</title>
<path fill="none" stroke="black" d="M262.71,-501.42C252.18,-494.87 214.74,-471.6 185.78,-453.6"/>
<polygon fill="black" stroke="black" points="187.96,-450.84 177.62,-448.53 184.27,-456.78 187.96,-450.84"/>
<text text-anchor="middle" x="251.18" y="-469.3" font-family="Times,serif" font-size="14.00">urls_ch</text>
</g>
<!-- v19 -->
<g id="node16" class="node">
<title>v19</title>
<ellipse fill="none" stroke="black" cx="376.58" cy="-356" rx="3.6" ry="3.6"/>
<text text-anchor="middle" x="362.1" y="-362.8" font-family="Times,serif" font-size="14.00">mix</text>
</g>
<!-- v17&#45;&gt;v19 -->
<g id="edge16" class="edge">
<title>v17&#45;&gt;v19</title>
<path fill="none" stroke="black" d="M376.58,-411.65C376.58,-399.22 376.58,-382.74 376.58,-371.14"/>
<polygon fill="black" stroke="black" points="380.08,-371.24 376.58,-361.24 373.08,-371.24 380.08,-371.24"/>
</g>
<!-- v18 -->
<g id="node20" class="node">
<title>v18</title>
<ellipse fill="black" stroke="black" cx="351.58" cy="-356" rx="1.8" ry="1.8"/>
</g>
<!-- v17&#45;&gt;v18 -->
<g id="edge15" class="edge">
<title>v17&#45;&gt;v18</title>
<path fill="none" stroke="black" d="M370.53,-411.65C365.87,-398.2 359.56,-380 355.53,-368.38"/>
<polygon fill="black" stroke="black" points="358.95,-367.57 352.37,-359.27 352.34,-369.87 358.95,-367.57"/>
</g>
<!-- v20 -->
<g id="node22" class="node">
<title>v20</title>
<ellipse fill="none" stroke="black" cx="401.58" cy="-356" rx="3.6" ry="3.6"/>
<text text-anchor="middle" x="384.85" y="-339.1" font-family="Times,serif" font-size="14.00">view</text>
</g>
<!-- v17&#45;&gt;v20 -->
<g id="edge18" class="edge">
<title>v17&#45;&gt;v20</title>
<path fill="none" stroke="black" d="M382.63,-411.65C387.04,-398.95 392.91,-382 396.94,-370.37"/>
<polygon fill="black" stroke="black" points="400.17,-371.75 400.14,-361.15 393.56,-369.45 400.17,-371.75"/>
</g>
<!-- v13 -->
<g id="node15" class="node">
<title>v13</title>
<ellipse fill="black" stroke="black" cx="515.58" cy="-430.1" rx="3.6" ry="3.6"/>
<text text-anchor="middle" x="553.6" y="-436.9" font-family="Times,serif" font-size="14.00">Channel.empty</text>
</g>
<!-- v13&#45;&gt;v19 -->
<g id="edge12" class="edge">
<title>v13&#45;&gt;v19</title>
<path fill="none" stroke="black" d="M514.24,-426.33C512.33,-422.64 508.51,-416.11 503.58,-412.1 468.5,-383.57 416.39,-367.22 391.23,-360.55"/>
<polygon fill="black" stroke="black" points="392.1,-357.16 381.55,-358.14 390.41,-363.95 392.1,-357.16"/>
<text text-anchor="middle" x="518.88" y="-380.8" font-family="Times,serif" font-size="14.00">all_found_paths</text>
</g>
<!-- v25 -->
<g id="node21" class="node">
<title>v25</title>
<ellipse fill="none" stroke="black" cx="247.58" cy="-296.3" rx="3.6" ry="3.6"/>
<text text-anchor="middle" x="233.1" y="-303.1" font-family="Times,serif" font-size="14.00">mix</text>
</g>
<!-- v19&#45;&gt;v25 -->
<g id="edge17" class="edge">
<title>v19&#45;&gt;v25</title>
<path fill="none" stroke="black" d="M373.18,-354.23C363.27,-351.93 333.62,-344.62 310.58,-334.4 291.94,-326.13 271.88,-313.63 259.53,-305.47"/>
<polygon fill="black" stroke="black" points="261.84,-302.8 251.6,-300.09 257.91,-308.6 261.84,-302.8"/>
<text text-anchor="middle" x="354.08" y="-321.1" font-family="Times,serif" font-size="14.00">all_found_paths</text>
</g>
<!-- v14 -->
<g id="node17" class="node">
<title>v14</title>
<ellipse fill="black" stroke="black" cx="614.58" cy="-725.3" rx="3.6" ry="3.6"/>
<text text-anchor="middle" x="569.35" y="-732.1" font-family="Times,serif" font-size="14.00">Channel.empty</text>
</g>
<!-- v15 -->
<g id="node18" class="node">
<title>v15</title>
<ellipse fill="black" stroke="black" cx="614.58" cy="-651.2" rx="1.8" ry="1.8"/>
</g>
<!-- v14&#45;&gt;v15 -->
<g id="edge13" class="edge">
<title>v14&#45;&gt;v15</title>
<path fill="none" stroke="black" d="M614.58,-721.2C614.58,-711.56 614.58,-681.71 614.58,-664.6"/>
<polygon fill="black" stroke="black" points="618.08,-664.68 614.58,-654.68 611.08,-664.68 618.08,-664.68"/>
<text text-anchor="middle" x="636.7" y="-690.4" font-family="Times,serif" font-size="14.00">all_stats</text>
</g>
<!-- v16 -->
<g id="node19" class="node">
<title>v16</title>
<ellipse fill="black" stroke="black" cx="376.58" cy="-504.2" rx="3.6" ry="3.6"/>
</g>
<!-- v16&#45;&gt;v17 -->
<g id="edge14" class="edge">
<title>v16&#45;&gt;v17</title>
<path fill="none" stroke="black" d="M376.58,-500.1C376.58,-493.1 376.58,-475.44 376.58,-459.74"/>
<polygon fill="black" stroke="black" points="380.08,-459.84 376.58,-449.84 373.08,-459.84 380.08,-459.84"/>
<text text-anchor="middle" x="398.7" y="-469.3" font-family="Times,serif" font-size="14.00">wordlist</text>
</g>
<!-- v28 -->
<g id="node27" class="node">
<title>v28</title>
<ellipse fill="none" stroke="black" cx="247.58" cy="-236.6" rx="3.6" ry="3.6"/>
<text text-anchor="middle" x="215.48" y="-243.4" font-family="Times,serif" font-size="14.00">collectFile</text>
</g>
<!-- v25&#45;&gt;v28 -->
<g id="edge24" class="edge">
<title>v25&#45;&gt;v28</title>
<path fill="none" stroke="black" d="M247.58,-292.52C247.58,-285.3 247.58,-265.59 247.58,-251.86"/>
<polygon fill="black" stroke="black" points="251.08,-252 247.58,-242 244.08,-252 251.08,-252"/>
<text text-anchor="middle" x="291.08" y="-261.4" font-family="Times,serif" font-size="14.00">all_found_paths</text>
</g>
<!-- v21 -->
<g id="node23" class="node">
<title>v21</title>
<ellipse fill="black" stroke="black" cx="401.58" cy="-296.3" rx="1.8" ry="1.8"/>
</g>
<!-- v20&#45;&gt;v21 -->
<g id="edge19" class="edge">
<title>v20&#45;&gt;v21</title>
<path fill="none" stroke="black" d="M401.58,-352.22C401.58,-344.63 401.58,-323.22 401.58,-309.49"/>
<polygon fill="black" stroke="black" points="405.08,-309.9 401.58,-299.9 398.08,-309.9 405.08,-309.9"/>
</g>
<!-- v23&#45;&gt;v25 -->
<g id="edge23" class="edge">
<title>v23&#45;&gt;v25</title>
<path fill="none" stroke="black" d="M162.39,-411.87C182.71,-384.54 221.8,-331.96 239.05,-308.77"/>
<polygon fill="black" stroke="black" points="241.8,-310.94 244.96,-300.83 236.18,-306.76 241.8,-310.94"/>
</g>
<!-- v24 -->
<g id="node26" class="node">
<title>v24</title>
<ellipse fill="black" stroke="black" cx="137.58" cy="-356" rx="1.8" ry="1.8"/>
</g>
<!-- v23&#45;&gt;v24 -->
<g id="edge22" class="edge">
<title>v23&#45;&gt;v24</title>
<path fill="none" stroke="black" d="M146.67,-411.65C144.49,-398.5 141.54,-380.82 139.61,-369.17"/>
<polygon fill="black" stroke="black" points="143.06,-368.62 137.97,-359.33 136.16,-369.77 143.06,-368.62"/>
</g>
<!-- v26 -->
<g id="node28" class="node">
<title>v26</title>
<ellipse fill="none" stroke="black" cx="162.58" cy="-356" rx="3.6" ry="3.6"/>
<text text-anchor="middle" x="145.85" y="-362.8" font-family="Times,serif" font-size="14.00">view</text>
</g>
<!-- v23&#45;&gt;v26 -->
<g id="edge25" class="edge">
<title>v23&#45;&gt;v26</title>
<path fill="none" stroke="black" d="M152.73,-411.65C154.99,-399.08 158,-382.37 160.1,-370.75"/>
<polygon fill="black" stroke="black" points="163.49,-371.67 161.82,-361.21 156.6,-370.43 163.49,-371.67"/>
</g>
<!-- v22 -->
<g id="node25" class="node">
<title>v22</title>
<ellipse fill="black" stroke="black" cx="149.58" cy="-504.2" rx="3.6" ry="3.6"/>
</g>
<!-- v22&#45;&gt;v23 -->
<g id="edge21" class="edge">
<title>v22&#45;&gt;v23</title>
<path fill="none" stroke="black" d="M149.58,-500.1C149.58,-493.1 149.58,-475.44 149.58,-459.74"/>
<polygon fill="black" stroke="black" points="153.08,-459.84 149.58,-449.84 146.08,-459.84 153.08,-459.84"/>
<text text-anchor="middle" x="171.7" y="-469.3" font-family="Times,serif" font-size="14.00">wordlist</text>
</g>
<!-- v29 -->
<g id="node30" class="node">
<title>v29</title>
<ellipse fill="none" stroke="black" cx="247.58" cy="-192.4" rx="3.6" ry="3.6"/>
<text text-anchor="middle" x="231.98" y="-199.2" font-family="Times,serif" font-size="14.00">map</text>
</g>
<!-- v28&#45;&gt;v29 -->
<g id="edge27" class="edge">
<title>v28&#45;&gt;v29</title>
<path fill="none" stroke="black" d="M247.58,-232.57C247.58,-227.41 247.58,-216.61 247.58,-207.66"/>
<polygon fill="black" stroke="black" points="251.08,-207.7 247.58,-197.7 244.08,-207.7 251.08,-207.7"/>
</g>
<!-- v27 -->
<g id="node29" class="node">
<title>v27</title>
<ellipse fill="black" stroke="black" cx="162.58" cy="-296.3" rx="1.8" ry="1.8"/>
</g>
<!-- v26&#45;&gt;v27 -->
<g id="edge26" class="edge">
<title>v26&#45;&gt;v27</title>
<path fill="none" stroke="black" d="M162.58,-352.22C162.58,-344.63 162.58,-323.22 162.58,-309.49"/>
<polygon fill="black" stroke="black" points="166.08,-309.9 162.58,-299.9 159.08,-309.9 166.08,-309.9"/>
</g>
<!-- v30 -->
<g id="node31" class="node">
<title>v30</title>
<ellipse fill="none" stroke="black" cx="247.58" cy="-118.3" rx="3.6" ry="3.6"/>
<text text-anchor="middle" x="231.98" y="-125.1" font-family="Times,serif" font-size="14.00">map</text>
</g>
<!-- v29&#45;&gt;v30 -->
<g id="edge28" class="edge">
<title>v29&#45;&gt;v30</title>
<path fill="none" stroke="black" d="M247.58,-188.3C247.58,-179.04 247.58,-151.11 247.58,-133.76"/>
<polygon fill="black" stroke="black" points="251.08,-133.82 247.58,-123.82 244.08,-133.82 251.08,-133.82"/>
<text text-anchor="middle" x="280.95" y="-157.5" font-family="Times,serif" font-size="14.00">found_paths</text>
</g>
<!-- v31 -->
<g id="node33" class="node">
<title>v31</title>
<ellipse fill="none" stroke="black" cx="337.58" cy="-118.3" rx="3.6" ry="3.6"/>
<text text-anchor="middle" x="320.85" y="-125.1" font-family="Times,serif" font-size="14.00">view</text>
</g>
<!-- v29&#45;&gt;v31 -->
<g id="edge30" class="edge">
<title>v29&#45;&gt;v31</title>
<path fill="none" stroke="black" d="M251.51,-191.32C262.89,-190.87 296.29,-188.09 315.58,-170.8 326.49,-161.02 332.18,-144.91 335.01,-133.3"/>
<polygon fill="black" stroke="black" points="338.43,-134.09 336.92,-123.61 331.56,-132.74 338.43,-134.09"/>
<text text-anchor="middle" x="360.56" y="-157.5" font-family="Times,serif" font-size="14.00">found_paths</text>
</g>
<!-- v36 -->
<g id="node36" class="node">
<title>v36</title>
<ellipse fill="none" stroke="black" cx="104.58" cy="-118.3" rx="104.58" ry="18"/>
<text text-anchor="middle" x="104.58" y="-113.25" font-family="Times,serif" font-size="14.00">BBRF_UPLOAD_URLS</text>
</g>
<!-- v29&#45;&gt;v36 -->
<g id="edge33" class="edge">
<title>v29&#45;&gt;v36</title>
<path fill="none" stroke="black" d="M243.89,-190.78C233.13,-188.87 201.01,-182.52 176.83,-170.8 161.55,-163.39 146.03,-152.82 133.31,-143.17"/>
<polygon fill="black" stroke="black" points="135.82,-140.69 125.78,-137.3 131.52,-146.21 135.82,-140.69"/>
<text text-anchor="middle" x="210.2" y="-157.5" font-family="Times,serif" font-size="14.00">found_paths</text>
</g>
<!-- v33 -->
<g id="node32" class="node">
<title>v33</title>
<ellipse fill="none" stroke="black" cx="247.58" cy="-44.2" rx="3.6" ry="3.6"/>
<text text-anchor="middle" x="230.85" y="-51" font-family="Times,serif" font-size="14.00">view</text>
</g>
<!-- v30&#45;&gt;v33 -->
<g id="edge29" class="edge">
<title>v30&#45;&gt;v33</title>
<path fill="none" stroke="black" d="M247.58,-114.2C247.58,-104.94 247.58,-77.01 247.58,-59.66"/>
<polygon fill="black" stroke="black" points="251.08,-59.72 247.58,-49.72 244.08,-59.72 251.08,-59.72"/>
<text text-anchor="middle" x="259.58" y="-69" font-family="Times,serif" font-size="14.00">stats</text>
</g>
<!-- v34 -->
<g id="node35" class="node">
<title>v34</title>
<ellipse fill="black" stroke="black" cx="247.58" cy="-1.8" rx="1.8" ry="1.8"/>
</g>
<!-- v33&#45;&gt;v34 -->
<g id="edge32" class="edge">
<title>v33&#45;&gt;v34</title>
<path fill="none" stroke="black" d="M247.58,-40.29C247.58,-35.17 247.58,-24.22 247.58,-15.47"/>
<polygon fill="black" stroke="black" points="251.08,-15.54 247.58,-5.54 244.08,-15.54 251.08,-15.54"/>
</g>
<!-- v32 -->
<g id="node34" class="node">
<title>v32</title>
<ellipse fill="black" stroke="black" cx="337.58" cy="-44.2" rx="1.8" ry="1.8"/>
</g>
<!-- v31&#45;&gt;v32 -->
<g id="edge31" class="edge">
<title>v31&#45;&gt;v32</title>
<path fill="none" stroke="black" d="M337.58,-114.2C337.58,-104.56 337.58,-74.71 337.58,-57.6"/>
<polygon fill="black" stroke="black" points="341.08,-57.68 337.58,-47.68 334.08,-57.68 341.08,-57.68"/>
</g>
<!-- v37 -->
<g id="node38" class="node">
<title>v37</title>
<ellipse fill="none" stroke="black" cx="104.58" cy="-44.2" rx="3.6" ry="3.6"/>
<text text-anchor="middle" x="87.85" y="-51" font-family="Times,serif" font-size="14.00">view</text>
</g>
<!-- v36&#45;&gt;v37 -->
<g id="edge35" class="edge">
<title>v36&#45;&gt;v37</title>
<path fill="none" stroke="black" d="M104.58,-99.85C104.58,-87.42 104.58,-70.94 104.58,-59.34"/>
<polygon fill="black" stroke="black" points="108.08,-59.44 104.58,-49.44 101.08,-59.44 108.08,-59.44"/>
</g>
<!-- v35 -->
<g id="node37" class="node">
<title>v35</title>
<ellipse fill="black" stroke="black" cx="87.58" cy="-192.4" rx="3.6" ry="3.6"/>
</g>
<!-- v35&#45;&gt;v36 -->
<g id="edge34" class="edge">
<title>v35&#45;&gt;v36</title>
<path fill="none" stroke="black" d="M87.34,-188.65C86.89,-182.44 86.16,-166.86 89.08,-154.3 89.62,-151.97 90.32,-149.61 91.11,-147.27"/>
<polygon fill="black" stroke="black" points="94.33,-148.65 94.79,-138.06 87.83,-146.05 94.33,-148.65"/>
<text text-anchor="middle" x="112.33" y="-157.5" font-family="Times,serif" font-size="14.00">program</text>
</g>
<!-- v38 -->
<g id="node39" class="node">
<title>v38</title>
<ellipse fill="black" stroke="black" cx="104.58" cy="-1.8" rx="1.8" ry="1.8"/>
</g>
<!-- v37&#45;&gt;v38 -->
<g id="edge36" class="edge">
<title>v37&#45;&gt;v38</title>
<path fill="none" stroke="black" d="M104.58,-40.29C104.58,-35.17 104.58,-24.22 104.58,-15.47"/>
<polygon fill="black" stroke="black" points="108.08,-15.54 104.58,-5.54 101.08,-15.54 108.08,-15.54"/>
</g>
</g>
</svg>
